<?xml version="1.0" encoding="utf-8"?>

<svg version="1.1" id="Layer_1" xmlns="http://www.w3.org/2000/svg" xmlns:xlink="http://www.w3.org/1999/xlink" x="0px" y="0px"
	 viewBox="0 0 64 64" style="enable-background:new 0 0 64 64;" xml:space="preserve">
<style type="text/css">
	.st0{fill:#9ACD32;}
</style>
<g>
	<g>
		<path class="st0" d="M31.9,0c9,0,16.5,3.1,22.7,9.3C60.9,15.5,64,23,64,32s-3,16.5-9.1,22.5c-6.5,6.3-14.1,9.5-23,9.5
			c-8.6,0-16.2-3.1-22.5-9.4S0,40.8,0,32c0-8.7,3.1-16.3,9.4-22.7C15.6,3.1,23.1,0,31.9,0z M32.1,5.8c-7.3,0-13.4,2.6-18.5,7.7
			C8.4,18.8,5.8,25,5.8,32c0,7.1,2.6,13.3,7.8,18.4c5.2,5.2,11.4,7.8,18.5,7.8s13.3-2.6,18.6-7.8c5-4.9,7.5-11,7.5-18.3
			s-2.6-13.5-7.7-18.5C45.5,8.3,39.3,5.8,32.1,5.8z M17.8,27.5c0.6-3.9,2.2-7,4.7-9.1c2.6-2.2,5.7-3.2,9.3-3.2c5,0,9,1.6,12,4.9
			c3,3.2,4.5,7.4,4.5,12.5c0,4.9-1.5,9-4.6,12.3s-7.1,4.9-12,4.9c-3.6,0-6.7-1.1-9.4-3.3c-2.6-2.2-4.2-5.3-4.7-9.3h8.1
			c0.2,3.9,2.5,5.8,7,5.8c2.2,0,4.1-1,5.4-2.9c1.4-1.9,2.1-4.5,2.1-7.8c0-3.4-0.6-6-1.9-7.7c-1.3-1.8-3.1-2.7-5.4-2.7
			c-4.3,0-6.7,1.9-7.2,5.7H28l-6.3,6.3l-6.3-6.3L17.8,27.5L17.8,27.5z"/>
	</g>
</g>
</svg>
